<svg width="27" height="26" viewBox="0 0 27 26" fill="none" xmlns="http://www.w3.org/2000/svg">
<path fill-rule="evenodd" clip-rule="evenodd" d="M19 24L8 24C4.68629 24 2 21.3137 2 18L2 8C2 4.68629 4.68629 2 8 2L19 2C22.3137 2 25 4.68629 25 8L25 18C25 21.3137 22.3137 24 19 24ZM27 18C27 22.4183 23.4183 26 19 26L8 26C3.58172 26 3.13124e-07 22.4183 6.99382e-07 18L1.57361e-06 8C1.95987e-06 3.58172 3.58172 -2.04729e-06 8 -1.66103e-06L19 -6.99382e-07C23.4183 -3.13124e-07 27 3.58172 27 8L27 18ZM14 18C14 18.5523 13.5523 19 13 19C12.4477 19 12 18.5523 12 18L12 14L8 14C7.44772 14 7 13.5523 7 13C7 12.4477 7.44772 12 8 12L12 12L12 8C12 7.44771 12.4477 7 13 7C13.5523 7 14 7.44771 14 8L14 12L18 12C18.5523 12 19 12.4477 19 13C19 13.5523 18.5523 14 18 14L14 14L14 18Z" fill="#ABABAB"/>
</svg>
