<svg width="16" height="16" viewBox="0 0 16 16" fill="none" xmlns="http://www.w3.org/2000/svg">
<path d="M9.19719 1.07167L8.40442 0.258302C8.06874 -0.0860996 7.52595 -0.0860996 7.19384 0.258302L0.251758 7.37715C-0.0839192 7.72155 -0.0839192 8.27845 0.251758 8.61919L7.19384 15.7417C7.52952 16.0861 8.07231 16.0861 8.40442 15.7417L9.19719 14.9283C9.53644 14.5803 9.52929 14.0124 9.1829 13.6716L4.87981 9.46554H15.143C15.6179 9.46554 16 9.07351 16 8.58621V7.41378C16 6.92649 15.6179 6.53446 15.143 6.53446H4.87981L9.1829 2.32837C9.53286 1.98763 9.54001 1.41974 9.19719 1.07167Z" fill="#ABABAB"/>
</svg>
