<svg width="22" height="22" viewBox="0 0 22 22" fill="none" xmlns="http://www.w3.org/2000/svg">
<path fill-rule="evenodd" clip-rule="evenodd" d="M14.1324 20.3748C15.2374 20.7918 16.2423 21.0003 17.0748 21.0003C17.798 21.0003 18.3912 20.8426 18.8038 20.5284C18.8634 20.483 18.9191 20.4342 18.9708 20.3822C19.0411 20.3121 19.1149 20.2413 19.1901 20.169L19.3492 20.0174C20.1442 19.2628 21.045 18.4071 20.9987 17.2762C20.9664 16.4952 20.4825 15.7403 19.5201 14.9669C16.6793 12.683 15.6661 13.7103 14.4928 14.9002L14.2809 15.1141C13.9283 15.4666 13.0695 14.9945 12.589 14.6822C11.8263 14.1864 10.8717 13.367 9.75208 12.2477C6.32288 8.81821 6.69153 7.91489 6.88636 7.71982L7.09729 7.51132C8.28968 6.33676 9.32044 5.32358 7.0343 2.48081C6.26087 1.51816 5.5055 1.03378 4.72571 1.00131C3.59436 0.96103 2.74036 1.85507 1.98499 2.64951L1.97327 2.66123C1.85315 2.78915 1.73548 2.91269 1.61975 3.02817C0.791629 3.85581 0.793582 5.66391 1.62464 7.86704C2.5387 10.2901 4.34436 12.9271 6.70911 15.2918C9.07288 17.6556 11.7091 19.4613 14.1324 20.3748ZM2.47376 3.11264C3.11585 2.43662 3.84192 1.67246 4.64563 1.67246L4.69837 1.67319C5.26526 1.69736 5.87464 2.11044 6.51184 2.90073C8.41614 5.26938 7.7428 5.93198 6.62708 7.02988L6.41223 7.24179C5.52161 8.13437 6.43177 9.87607 9.27796 12.7218C10.4298 13.8741 11.4215 14.723 12.2238 15.245C13.381 15.9972 14.233 16.1134 14.7579 15.588L14.9733 15.3707C16.0709 14.2574 16.733 13.5855 19.1002 15.4891C19.8912 16.1248 20.3043 16.735 20.3278 17.3021C20.3624 18.1275 19.5787 18.8717 18.8878 19.5282C18.7521 19.6566 18.6198 19.7818 18.4967 19.9049C17.8815 20.5204 16.2623 20.4598 14.3712 19.7455C12.0348 18.8648 9.48401 17.1139 7.18616 14.8165C4.88733 12.5179 3.13636 9.96567 2.25501 7.62998C1.54212 5.73886 1.47962 4.11972 2.09632 3.50351C2.21155 3.38852 2.32776 3.26572 2.44886 3.13901L2.47376 3.11264Z" fill="#45B4B3"/>
<path d="M14.1324 20.3748L14.1766 20.2579L14.1765 20.2579L14.1324 20.3748ZM18.8038 20.5284L18.8796 20.6279L18.8796 20.6278L18.8038 20.5284ZM18.9708 20.3822L18.8826 20.2936L18.8822 20.294L18.9708 20.3822ZM19.1901 20.169L19.1039 20.0785L19.1035 20.0789L19.1901 20.169ZM19.3492 20.0174L19.2632 19.9268L19.263 19.9269L19.3492 20.0174ZM20.9987 17.2762L21.1236 17.2711V17.2711L20.9987 17.2762ZM19.5201 14.9669L19.4418 15.0643L19.4418 15.0643L19.5201 14.9669ZM14.4928 14.9002L14.5816 14.9882L14.5818 14.988L14.4928 14.9002ZM14.2809 15.1141L14.3693 15.2025L14.3697 15.2021L14.2809 15.1141ZM12.589 14.6822L12.5209 14.787L12.5209 14.787L12.589 14.6822ZM9.75208 12.2477L9.66369 12.336L9.6637 12.336L9.75208 12.2477ZM6.88636 7.71982L6.79848 7.63092L6.79791 7.63149L6.88636 7.71982ZM7.09729 7.51132L7.00957 7.42227L7.00942 7.42242L7.09729 7.51132ZM7.0343 2.48081L6.93686 2.5591L6.9369 2.55914L7.0343 2.48081ZM4.72571 1.00131L4.73091 0.876419L4.73016 0.876392L4.72571 1.00131ZM1.98499 2.64951L2.0734 2.73792L2.07558 2.73564L1.98499 2.64951ZM1.97327 2.66123L1.88484 2.57279L1.88214 2.57566L1.97327 2.66123ZM1.61975 3.02817L1.53146 2.93969L1.53139 2.93975L1.61975 3.02817ZM1.62464 7.86704L1.50768 7.91115L1.50768 7.91115L1.62464 7.86704ZM4.64563 1.67246L4.64737 1.54746H4.64563V1.67246ZM2.47376 3.11264L2.38312 3.02656L2.38288 3.02681L2.47376 3.11264ZM4.69837 1.67319L4.70369 1.54825L4.7001 1.5482L4.69837 1.67319ZM6.51184 2.90073L6.60926 2.82241L6.60915 2.82227L6.51184 2.90073ZM6.62708 7.02988L6.5394 6.94078L6.5393 6.94088L6.62708 7.02988ZM6.41223 7.24179L6.32445 7.1528L6.32375 7.1535L6.41223 7.24179ZM9.27796 12.7218L9.36636 12.6334L9.36634 12.6334L9.27796 12.7218ZM12.2238 15.245L12.1556 15.3497L12.1556 15.3498L12.2238 15.245ZM14.7579 15.588L14.8464 15.6763L14.8467 15.676L14.7579 15.588ZM14.9733 15.3707L15.0621 15.4587L15.0623 15.4585L14.9733 15.3707ZM19.1002 15.4891L19.0219 15.5865L19.0219 15.5865L19.1002 15.4891ZM20.3278 17.3021L20.2029 17.3073L20.2029 17.3073L20.3278 17.3021ZM18.8878 19.5282L18.9737 19.619L18.9739 19.6188L18.8878 19.5282ZM18.4967 19.9049L18.4083 19.8165L18.4083 19.8165L18.4967 19.9049ZM14.3712 19.7455L14.4154 19.6285L14.4153 19.6285L14.3712 19.7455ZM7.18616 14.8165L7.09778 14.9049L7.09778 14.9049L7.18616 14.8165ZM2.25501 7.62998L2.13804 7.67407L2.13806 7.67411L2.25501 7.62998ZM2.09632 3.50351L2.00802 3.41503L2.00796 3.41509L2.09632 3.50351ZM2.44886 3.13901L2.53922 3.22537L2.53973 3.22484L2.44886 3.13901ZM17.0748 20.8753C16.2617 20.8753 15.2722 20.6714 14.1766 20.2579L14.0883 20.4918C15.2027 20.9123 16.2229 21.1253 17.0748 21.1253V20.8753ZM18.7281 20.429C18.345 20.7207 17.7822 20.8753 17.0748 20.8753V21.1253C17.8137 21.1253 18.4375 20.9645 18.8796 20.6279L18.7281 20.429ZM18.8822 20.294C18.8345 20.342 18.7831 20.387 18.7281 20.429L18.8796 20.6278C18.9437 20.579 19.0036 20.5264 19.0594 20.4704L18.8822 20.294ZM19.1035 20.0789C19.0285 20.151 18.9539 20.2226 18.8826 20.2936L19.0591 20.4707C19.1284 20.4016 19.2013 20.3316 19.2767 20.2592L19.1035 20.0789ZM19.263 19.9269L19.1039 20.0785L19.2763 20.2596L19.4355 20.1079L19.263 19.9269ZM20.8738 17.2813C20.8954 17.8099 20.6966 18.2796 20.3875 18.7156C20.077 19.1535 19.6624 19.5478 19.2632 19.9268L19.4353 20.1081C19.831 19.7324 20.2643 19.3215 20.5914 18.8602C20.9198 18.397 21.1483 17.8734 21.1236 17.2711L20.8738 17.2813ZM19.4418 15.0643C20.3923 15.8282 20.8437 16.5529 20.8738 17.2814L21.1236 17.2711C21.0892 16.4375 20.5728 15.6525 19.5984 14.8695L19.4418 15.0643ZM14.5818 14.988C15.1756 14.3858 15.6936 13.8668 16.4008 13.7543C17.102 13.6428 18.0291 13.9285 19.4418 15.0643L19.5985 14.8695C18.1703 13.7213 17.1705 13.3788 16.3615 13.5074C15.5586 13.6351 14.9834 14.2247 14.4038 14.8125L14.5818 14.988ZM14.3697 15.2021L14.5816 14.9882L14.404 14.8123L14.1921 15.0261L14.3697 15.2021ZM12.5209 14.787C12.7636 14.9448 13.1083 15.1473 13.4412 15.2653C13.6074 15.3242 13.7781 15.3648 13.9358 15.3643C14.0948 15.3638 14.2507 15.321 14.3693 15.2025L14.1925 15.0257C14.1348 15.0834 14.0511 15.1139 13.935 15.1143C13.8175 15.1146 13.6773 15.0837 13.5247 15.0296C13.2198 14.9216 12.8948 14.7319 12.6571 14.5774L12.5209 14.787ZM9.6637 12.336C10.7857 13.4578 11.7474 14.2842 12.5209 14.787L12.6571 14.5774C11.9052 14.0886 10.9577 13.2763 9.84046 12.1593L9.6637 12.336ZM6.79791 7.63149C6.72694 7.70254 6.65477 7.82497 6.64486 8.02101C6.63513 8.21358 6.68551 8.4726 6.84664 8.82306C7.16821 9.52249 7.9461 10.6183 9.66369 12.336L9.84047 12.1593C8.12886 10.4475 7.37647 9.37699 7.07378 8.71863C6.92277 8.39019 6.88752 8.17247 6.89454 8.03363C6.90139 7.89827 6.94836 7.83463 6.9748 7.80815L6.79791 7.63149ZM7.00942 7.42242L6.79848 7.63092L6.97423 7.80872L7.18516 7.60022L7.00942 7.42242ZM6.9369 2.55914C8.07376 3.97281 8.35915 4.90034 8.24681 5.60188C8.1335 6.3095 7.61303 6.82783 7.00957 7.42227L7.18501 7.60037C7.77393 7.02026 8.36504 6.44471 8.49367 5.64141C8.62328 4.83202 8.28098 3.83157 7.13171 2.40247L6.9369 2.55914ZM4.72051 1.1262C5.44771 1.15649 6.17299 1.60836 6.93686 2.5591L7.13175 2.40251C6.34874 1.42795 5.56328 0.911082 4.73091 0.876421L4.72051 1.1262ZM2.07558 2.73564C2.45483 2.33677 2.84889 1.92395 3.28653 1.61445C3.72229 1.30628 4.19202 1.10739 4.72126 1.12623L4.73016 0.876392C4.12806 0.854954 3.60511 1.08295 3.14218 1.41033C2.68114 1.73639 2.27052 2.16781 1.8944 2.56337L2.07558 2.73564ZM2.06166 2.74961L2.07338 2.73789L1.8966 2.56112L1.88488 2.57284L2.06166 2.74961ZM1.70805 3.11665C1.82522 2.99973 1.94399 2.87503 2.0644 2.74679L1.88214 2.57566C1.76232 2.70328 1.64574 2.82565 1.53146 2.93969L1.70805 3.11665ZM1.74159 7.82292C1.3296 6.73072 1.12584 5.7432 1.125 4.93167C1.12417 4.1181 1.3268 3.49767 1.70812 3.11658L1.53139 2.93975C1.08458 3.3863 0.87413 4.08374 0.875003 4.93192C0.875877 5.78214 1.08862 6.80023 1.50768 7.91115L1.74159 7.82292ZM6.7975 15.2035C4.4418 12.8478 2.64784 10.2253 1.74159 7.82292L1.50768 7.91115C2.42956 10.355 4.24693 13.0064 6.62072 15.3802L6.7975 15.2035ZM14.1765 20.2579C11.7739 19.3521 9.15223 17.5582 6.7975 15.2035L6.62072 15.3802C8.99353 17.753 11.6443 19.5704 14.0884 20.4918L14.1765 20.2579ZM4.64563 1.54746C4.20391 1.54746 3.79472 1.75711 3.42341 2.03955C3.05168 2.32231 2.70266 2.69014 2.38312 3.02656L2.56439 3.19873C2.88695 2.85912 3.222 2.50686 3.57476 2.23853C3.92795 1.96988 4.28364 1.79746 4.64563 1.79746V1.54746ZM4.7001 1.5482L4.64737 1.54747L4.6439 1.79744L4.69663 1.79818L4.7001 1.5482ZM6.60915 2.82227C5.96609 2.02472 5.3265 1.57486 4.70369 1.5483L4.69304 1.79807C5.20403 1.81986 5.78318 2.19617 6.41453 2.97919L6.60915 2.82227ZM6.71475 7.11897C6.99185 6.8463 7.25052 6.59215 7.44754 6.32965C7.64618 6.06496 7.78788 5.78465 7.82613 5.4563C7.90227 4.80256 7.5631 4.00884 6.60926 2.82241L6.41442 2.97905C7.36488 4.16127 7.64119 4.88317 7.57781 5.42737C7.54629 5.69799 7.42947 5.93722 7.24758 6.17958C7.06406 6.42411 6.82016 6.66451 6.5394 6.94078L6.71475 7.11897ZM6.50001 7.33078L6.71486 7.11887L6.5393 6.94088L6.32445 7.1528L6.50001 7.33078ZM9.36634 12.6334C7.94507 11.2124 7.01734 10.0765 6.55456 9.19144C6.32334 8.7492 6.2132 8.37882 6.20901 8.07271C6.2049 7.77151 6.30299 7.52825 6.50072 7.33008L6.32375 7.1535C6.07617 7.40162 5.95404 7.71079 5.95904 8.07613C5.96396 8.43655 6.09226 8.84681 6.33302 9.30728C6.81421 10.2276 7.76465 11.3855 9.18958 12.8102L9.36634 12.6334ZM12.2919 15.1402C11.5003 14.6251 10.5157 13.7832 9.36636 12.6334L9.18955 12.8101C10.344 13.965 11.3427 14.8209 12.1556 15.3497L12.2919 15.1402ZM14.6695 15.4996C14.4392 15.7302 14.1362 15.8248 13.7448 15.7717C13.3476 15.7178 12.8634 15.5117 12.2919 15.1402L12.1556 15.3498C12.7413 15.7305 13.2617 15.9585 13.7112 16.0194C14.1663 16.0812 14.5518 15.9712 14.8464 15.6763L14.6695 15.4996ZM14.8845 15.2827L14.6692 15.5L14.8467 15.676L15.0621 15.4587L14.8845 15.2827ZM19.1786 15.3917C17.9929 14.4382 17.1997 14.0989 16.5463 14.1744C16.2181 14.2123 15.938 14.3536 15.6734 14.5518C15.4109 14.7483 15.1569 15.0064 14.8843 15.2829L15.0623 15.4585C15.3385 15.1783 15.5788 14.935 15.8232 14.7519C16.0655 14.5705 16.3046 14.454 16.575 14.4228C17.1189 14.3599 17.8404 14.6364 19.0219 15.5865L19.1786 15.3917ZM20.4527 17.2969C20.4269 16.6738 19.9769 16.0334 19.1785 15.3917L19.0219 15.5865C19.8055 16.2163 20.1817 16.7962 20.2029 17.3073L20.4527 17.2969ZM18.9739 19.6188C19.3177 19.2922 19.6945 18.9347 19.9799 18.5534C20.2652 18.1724 20.4717 17.7515 20.4527 17.2968L20.2029 17.3073C20.2184 17.6781 20.0505 18.042 19.7798 18.4036C19.5094 18.7649 19.1489 19.1077 18.8017 19.4376L18.9739 19.6188ZM18.5851 19.9933C18.7067 19.8717 18.8377 19.7476 18.9737 19.619L18.8019 19.4374C18.6664 19.5656 18.5328 19.692 18.4083 19.8165L18.5851 19.9933ZM14.327 19.8624C15.2814 20.2229 16.1726 20.4206 16.9076 20.4488C17.636 20.4767 18.2397 20.3388 18.5851 19.9932L18.4083 19.8165C18.1385 20.0864 17.625 20.226 16.9172 20.1989C16.2161 20.1721 15.3521 19.9824 14.4154 19.6285L14.327 19.8624ZM7.09778 14.9049C9.40454 17.2112 11.9698 18.9739 14.3271 19.8624L14.4153 19.6285C12.0997 18.7557 9.56349 17.0166 7.27454 14.7281L7.09778 14.9049ZM2.13806 7.67411C3.02726 10.0306 4.79001 12.5974 7.09778 14.9049L7.27454 14.7281C4.98465 12.4385 3.24545 9.90071 2.37196 7.58584L2.13806 7.67411ZM2.00796 3.41509C1.66176 3.76101 1.52411 4.365 1.55216 5.09346C1.58046 5.82864 1.77829 6.71974 2.13804 7.67407L2.37197 7.58588C2.01884 6.6491 1.82897 5.78507 1.80197 5.08385C1.77472 4.37591 1.91417 3.86222 2.18467 3.59193L2.00796 3.41509ZM2.35849 3.05265C2.23673 3.18005 2.12191 3.30138 2.00802 3.41503L2.18461 3.59199C2.30119 3.47566 2.4188 3.35138 2.53922 3.22537L2.35849 3.05265ZM2.38288 3.02681L2.35798 3.05318L2.53973 3.22484L2.56463 3.19847L2.38288 3.02681Z" fill="#ABABAB"/>
</svg>
